<?xml version="1.0" encoding="UTF-8" standalone="no"?>
<svg
   xmlns:dc="http://purl.org/dc/elements/1.1/"
   xmlns:cc="http://creativecommons.org/ns#"
   xmlns:rdf="http://www.w3.org/1999/02/22-rdf-syntax-ns#"
   xmlns:svg="http://www.w3.org/2000/svg"
   xmlns="http://www.w3.org/2000/svg"
   xmlns:sodipodi="http://sodipodi.sourceforge.net/DTD/sodipodi-0.dtd"
   xmlns:inkscape="http://www.inkscape.org/namespaces/inkscape"
   version="1.1"
   id="svg2"
   viewBox="0 0 139.99999 60"
   height="60"
   width="140"
   inkscape:version="0.91 r13725"
   sodipodi:docname="logo.svg">
  <sodipodi:namedview
     pagecolor="#ffffff"
     bordercolor="#666666"
     borderopacity="1"
     objecttolerance="10"
     gridtolerance="10"
     guidetolerance="10"
     inkscape:pageopacity="0"
     inkscape:pageshadow="2"
     inkscape:window-width="1366"
     inkscape:window-height="705"
     id="namedview16"
     showgrid="false"
     inkscape:zoom="1.9733333"
     inkscape:cx="75"
     inkscape:cy="29.493243"
     inkscape:window-x="-8"
     inkscape:window-y="-8"
     inkscape:window-maximized="1"
     inkscape:current-layer="svg2" />
  <defs
     id="defs4" />
  <metadata
     id="metadata7">
    <rdf:RDF>
      <cc:Work
         rdf:about="">
        <dc:format>image/svg+xml</dc:format>
        <dc:type
           rdf:resource="http://purl.org/dc/dcmitype/StillImage" />
        <dc:title></dc:title>
      </cc:Work>
    </rdf:RDF>
  </metadata>
  <path
     style="color:#000000;font-style:normal;font-variant:normal;font-weight:normal;font-stretch:normal;font-size:medium;line-height:125%;font-family:'Neon 80s';-inkscape-font-specification:'Neon 80s';text-indent:0;text-align:start;text-decoration:none;text-decoration-line:none;text-decoration-style:solid;text-decoration-color:#000000;letter-spacing:0px;word-spacing:0px;text-transform:none;direction:ltr;block-progression:tb;writing-mode:lr-tb;baseline-shift:baseline;text-anchor:start;white-space:normal;clip-rule:nonzero;display:inline;overflow:visible;visibility:visible;opacity:1;isolation:auto;mix-blend-mode:normal;color-interpolation:sRGB;color-interpolation-filters:linearRGB;solid-color:#000000;solid-opacity:1;fill:#ff007d;fill-opacity:1;fill-rule:nonzero;stroke:#ff0073;stroke-width:0.2102029;stroke-linecap:butt;stroke-linejoin:miter;stroke-miterlimit:4;stroke-dasharray:none;stroke-dashoffset:0;stroke-opacity:1;color-rendering:auto;image-rendering:auto;shape-rendering:auto;text-rendering:auto;enable-background:accumulate"
     d="m 99.876878,15.286551 0,0.0043 -4.72546,0.01631 c -0.767464,0 -1.526295,0.315114 -2.071242,0.860107 -0.544975,0.544983 -0.860123,1.301284 -0.860123,2.071235 l 0,23.545193 c 0,0.769953 0.316186,1.527493 0.860123,2.071234 0.543751,0.543753 1.301288,0.862159 2.071242,0.862159 l 5.934542,0 c 2.89704,0 5.46881,-1.061535 7.50901,-3.101724 2.0518,-2.051819 3.11813,-4.629024 3.11813,-7.527482 0,-2.886797 -1.06938,-5.451537 -3.12226,-7.490528 -0.4696,-0.477915 -1.00303,-0.825349 -1.52519,-1.194707 0.48353,-0.962193 0.80058,-1.999641 0.80058,-3.126357 0,-1.891363 -0.71933,-3.60559 -2.06713,-4.940998 l -0.002,-0.0021 c -1.33687,-1.335797 -3.05173,-2.046597 -4.941,-2.046597 l -0.003,0 -0.975052,0 z m -74.798582,0.01864 -0.01994,0.379752 c -0.02995,0.01132 -0.05693,0.02263 -0.0862,0.03488 L 24.690926,15.467308 14.484598,24.563103 5.282054,16.37669 C 5.226174,16.30563 5.175553,16.233176 5.109654,16.167312 4.564693,15.62234 3.805859,15.307205 3.038409,15.307205 c -0.7674563,0 -1.5270549,0.313885 -2.07327573,0.860107 -0.5449976,0.544961 -0.8601165,1.30127 -0.8601165,2.071227 l 0,23.545191 c 0,0.769953 0.3165198,1.527494 0.8601165,2.071234 0.54496063,0.544994 1.30332133,0.862159 2.07327573,0.862159 0.769947,0 1.527515,-0.318409 2.071245,-0.862159 0.54376,-0.54374 0.860109,-1.301281 0.860109,-2.071234 l 0,-17.103619 c 1.964114,1.739669 3.910452,3.461147 5.125747,4.460653 0.8014,0.659089 1.439117,1.158301 1.935753,1.508782 0.248285,0.17523 0.459624,0.312186 0.660986,0.422865 0.201354,0.110696 0.320841,0.244291 0.792379,0.244291 0.699487,0 1.39249,-0.258701 1.923439,-0.716413 l 0.0067,-0.0063 6.663247,-5.93864 0,17.128256 c 0,0.76745 0.313185,1.526261 0.858086,2.071233 0.544961,0.544982 1.303321,0.862157 2.073276,0.862157 0.769947,0 1.527477,-0.318409 2.071244,-0.862157 0.54376,-0.543743 0.860109,-1.30128 0.860109,-2.071233 l 0,-23.545196 c 0,-0.769952 -0.315178,-1.526262 -0.860109,-2.071233 -0.543767,-0.543734 -1.301297,-0.862156 -2.071244,-0.862156 l -0.931969,0 z m 62.042703,0 -0.246283,0.164215 0.543997,-0.164215 -0.297543,0 z m 0.297543,0 c -0.382843,0 -0.685048,0.267488 -1.036638,0.414659 L 86.10067,15.46734 75.894341,24.563135 66.687678,16.374661 c -0.05523,-0.06969 -0.103505,-0.142647 -0.168411,-0.207315 -0.544961,-0.544975 -1.303759,-0.86011 -2.071207,-0.86011 -0.767457,0 -1.527085,0.313883 -2.073314,0.86011 -0.546228,0.54621 -0.858048,1.30378 -0.858048,2.071233 l 0,23.545193 c 0,0.767442 0.313184,1.526261 0.858048,2.071237 0.544998,0.54498 1.303358,0.862156 2.073314,0.862156 0.769946,0 1.527476,-0.31841 2.071207,-0.862156 0.543767,-0.543745 0.860116,-1.301285 0.860116,-2.071237 l 0,-17.10362 c 1.964107,1.73967 3.91048,3.461148 5.125774,4.460653 0.80137,0.659089 1.439087,1.1583 1.935753,1.508781 0.248285,0.175232 0.459594,0.312186 0.660986,0.422867 0.201355,0.110695 0.320842,0.244291 0.792349,0.244291 0.699517,0 1.39252,-0.258702 1.923441,-0.716415 l 0.0066,-0.0063 6.663277,-5.938642 0,17.128256 c 0,0.767439 0.313184,1.526251 0.858048,2.071234 0.544999,0.544993 1.303328,0.862159 2.073313,0.862159 0.769947,0 1.527477,-0.318409 2.071207,-0.862159 0.543767,-0.543742 0.86011,-1.301282 0.86011,-2.071234 l 0,-23.545193 c 0,-0.769952 -0.315178,-1.526252 -0.86011,-2.071236 -0.54373,-0.54373 -1.30126,-0.862156 -2.071207,-0.862156 z m -43.206551,0.0021 0,0.414655 c -0.373058,0.148505 -0.801029,0.165844 -1.081804,0.455708 -6.3e-4,6.76e-4 -0.0015,9.89e-4 -0.0023,0.0021 -0.247951,0.250515 -0.453902,0.538918 -0.595324,0.862157 l 0.01334,-0.03488 -11.351764,23.391231 0.0616,-0.106735 c -0.294216,0.451222 -0.445452,0.989804 -0.445452,1.52931 0,0.753197 0.303867,1.496737 0.829331,2.04045 l 0.0067,0.0063 0.003,0.0063 c 0.537808,0.537826 1.291818,0.843682 2.054811,0.843682 0.755766,0 1.498027,-0.307029 2.040458,-0.831364 l 0.01995,-0.01864 0.01995,-0.02064 c 0.225318,-0.242593 0.414694,-0.512106 0.552179,-0.806736 l 2.9026,-5.979705 11.885516,0 3.177675,6.546264 0.13346,0 c 0.06026,0.07621 0.09819,0.16894 0.164083,0.240164 l 0.01334,0.01431 0.01334,0.01232 c 0.536509,0.536544 1.289748,0.843681 2.052742,0.843681 0.755766,0 1.500554,-0.311986 2.032238,-0.843681 0.540306,-0.540296 0.860109,-1.289866 0.860109,-2.052769 0,-0.58018 -0.16641,-1.16325 -0.502922,-1.638099 l 0.0822,0.139585 -11.3559,-23.397389 -0.0023,-0.0043 C 47.654724,16.644164 47.46967,16.389969 47.246818,16.167204 46.705282,15.625681 45.954402,15.307097 45.194039,15.307097 l -0.97916,0 z m 80.320489,0 0,0.414655 c -0.37306,0.148505 -0.801,0.165844 -1.0818,0.455708 -6.3e-4,6.76e-4 -7.4e-4,9.89e-4 -0.002,0.0021 -0.24795,0.250481 -0.4539,0.538898 -0.59532,0.862157 l 0.0133,-0.03488 -11.35176,23.391231 0.0616,-0.106735 c -0.29422,0.451231 -0.44545,0.989814 -0.44545,1.52931 0,0.755763 0.30686,1.498033 0.83135,2.04045 l 0.007,0.0063 0.003,0.0063 c 0.53654,0.536544 1.28979,0.843682 2.05277,0.843682 0.75574,0 1.49804,-0.307029 2.04043,-0.831364 l 0.02,-0.01864 0.02,-0.02064 c 0.22532,-0.242593 0.4147,-0.512115 0.55218,-0.806736 l 2.90264,-5.979705 11.88548,0 3.17767,6.546264 0.13347,0 c 0.0603,0.07621 0.0981,0.16894 0.16408,0.240164 l 0.0133,0.01431 0.0134,0.01232 c 0.53654,0.536534 1.28978,0.843681 2.05274,0.843681 0.75577,0 1.50135,-0.310721 2.0343,-0.843681 0.5403,-0.540282 0.86011,-1.289856 0.86011,-2.052769 0,-0.583468 -0.17041,-1.165626 -0.50499,-1.638099 l 0.0822,0.139585 -11.35587,-23.397389 -0.002,-0.0043 c -0.13813,-0.276408 -0.32318,-0.530613 -0.54603,-0.753368 -0.54154,-0.541513 -1.29241,-0.860107 -2.05278,-0.860107 l -0.97915,0 z m -23.67655,1.939855 c 1.42771,0 2.54442,0.462931 3.55541,1.473892 l 0.002,0.0021 0.002,0.0021 c 1.02313,1.012126 1.49237,2.126601 1.49237,3.551282 0,1.099269 -0.28455,2.016771 -0.86217,2.851286 l -0.60353,0.872427 0.91964,0.533716 c 0.64605,0.374005 1.25797,0.852183 1.83927,1.445144 l 0.003,0.0043 0.007,0.0043 c 1.72455,1.712901 2.5434,3.678814 2.5434,6.100813 0,2.435882 -0.8219,4.416279 -2.54749,6.141867 -1.71173,1.711722 -3.68406,2.526953 -6.12135,2.526953 l -5.934542,0 c -0.302204,0 -0.461604,-0.06547 -0.683544,-0.287391 -0.22199,-0.221926 -0.28955,-0.3836 -0.28955,-0.68562 l 0,-23.545196 c 0,-0.302035 0.0686,-0.464914 0.28955,-0.685618 0.22066,-0.220726 0.37905,-0.285327 0.683544,-0.285327 l 0.002,0 5.702602,-0.02064 z m -74.845768,0.01864 c 0.301872,0 0.461596,0.06546 0.683551,0.287392 0.220664,0.220693 0.289551,0.383599 0.289551,0.685619 l 0,23.545192 c 0,0.302002 -0.06753,0.463687 -0.289551,0.685622 -0.221993,0.221958 -0.381546,0.287391 -0.683551,0.287391 -0.301866,0 -0.464918,-0.06663 -0.685642,-0.287391 -0.220664,-0.220694 -0.287224,-0.381101 -0.287224,-0.685622 l 0,-21.500645 -9.908689,8.833042 c -5.63e-4,5.03e-4 -0.0015,-5.06e-4 -0.0023,0 -0.177062,0.152133 -0.339411,0.186747 -0.543959,0.20322 -0.09819,-0.05698 -0.23131,-0.138585 -0.418796,-0.270949 -0.425242,-0.300105 -1.039899,-0.778266 -1.820794,-1.420508 -1.5618,-1.284497 -3.798319,-3.231398 -6.6961,-5.829853 l -1.634015,-1.465668 0,21.451371 c 0,0.302002 -0.06761,0.463686 -0.2895598,0.685622 -0.2219916,0.221958 -0.381545,0.287391 -0.6835433,0.287391 -0.3018722,0 -0.4649171,-0.06663 -0.6856485,-0.287391 C 2.1319753,42.247666 2.0644148,42.085982 2.0644148,41.78397 l 0,-23.545192 c 0,-0.302003 0.068865,-0.464919 0.2895521,-0.685619 0.2193304,-0.219463 0.381115,-0.285328 0.6856485,-0.285328 0.3045333,0 0.4628563,0.06463 0.6835432,0.285328 0.013343,0.01497 0.03358,0.03488 0.051296,0.06157 l 0.069899,0.104672 10.6415284,9.469396 10.198143,-9.087583 0.04723,0.04111 0.656894,-0.634298 c 0.190043,-0.183151 0.332488,-0.242227 0.621973,-0.242227 z m 61.40838,0 c 0.302205,0 0.461625,0.06536 0.68358,0.287392 0.220665,0.220693 0.289559,0.383599 0.289559,0.685619 l 0,23.545192 c 0,0.302035 -0.06753,0.463687 -0.289559,0.685622 -0.221991,0.221958 -0.381545,0.287391 -0.68358,0.287391 -0.301865,0 -0.464917,-0.06663 -0.685611,-0.287391 -0.220657,-0.220694 -0.287558,-0.381101 -0.287558,-0.685622 l 0,-21.500645 -9.908689,8.833042 c -5.93e-4,5.03e-4 -7.41e-4,-5.06e-4 -0.0023,0 -0.177063,0.152133 -0.339448,0.186747 -0.543998,0.20322 -0.09819,-0.05698 -0.231316,-0.138585 -0.418757,-0.270949 -0.42528,-0.300105 -1.0399,-0.778266 -1.820803,-1.420508 -1.561791,-1.284497 -3.798319,-3.231398 -6.696127,-5.829853 l -1.633985,-1.465668 0,21.451371 c 0,0.302036 -0.06753,0.463686 -0.289551,0.685622 -0.221992,0.221958 -0.381546,0.287391 -0.68358,0.287391 -0.301873,0 -0.464918,-0.06663 -0.685612,-0.287391 -0.220665,-0.220693 -0.287225,-0.3811 -0.287225,-0.685622 l 0,-23.545192 c 0,-0.304531 0.0679,-0.466157 0.287225,-0.685619 0.219324,-0.219496 0.381108,-0.285328 0.685612,-0.285328 0.304525,0 0.462848,0.06463 0.68358,0.285328 0.0166,0.01497 0.03359,0.03512 0.05122,0.06157 l 0.0699,0.104672 10.641525,9.469396 10.198107,-9.087583 0.04723,0.04111 0.656895,-0.634298 c 0.190042,-0.183119 0.332487,-0.242227 0.621972,-0.242227 z m -42.227393,0.0021 c 0.286231,0 0.440959,0.06117 0.665115,0.285327 0.08353,0.08354 0.140117,0.16335 0.180717,0.244292 l 11.382558,23.452812 0.04529,0.0657 c 0.09751,0.137722 0.145773,0.268455 0.145773,0.504981 0,0.283563 -0.0639,0.441753 -0.289553,0.667152 -0.208344,0.20848 -0.353857,0.268922 -0.644544,0.268922 -0.304859,0 -0.457097,-0.06726 -0.656886,-0.264827 -0.09519,-0.106471 -0.161417,-0.202456 -0.197028,-0.279172 l -0.26492,-0.566558 -0.02995,0 -3.177681,-6.546265 -14.340598,0 -3.448627,7.104616 -0.003,0.0083 c -0.03662,0.07871 -0.101844,0.169605 -0.188715,0.268921 -0.215994,0.204984 -0.378551,0.275076 -0.663048,0.275076 -0.306192,0 -0.461254,-0.06872 -0.661015,-0.266857 -0.20701,-0.2169 -0.275238,-0.380365 -0.275238,-0.669203 0,-0.200658 0.04062,-0.324002 0.129466,-0.459819 l 0.03329,-0.05129 11.388739,-23.465129 0.0067,-0.01631 c 0.03492,-0.08018 0.09486,-0.170837 0.199027,-0.275077 l 0.003,-0.0063 0.0066,-0.0063 c 0.205024,-0.212006 0.35033,-0.273013 0.654825,-0.273013 z m 80.320521,0 c 0.28623,0 0.44092,0.06117 0.66508,0.285327 0.0835,0.08354 0.1401,0.16335 0.18072,0.244292 l 11.38256,23.452812 0.0453,0.0657 c 0.0992,0.140085 0.14776,0.271716 0.14776,0.504981 0,0.283531 -0.064,0.441753 -0.28955,0.667152 -0.20734,0.207215 -0.35591,0.268922 -0.64662,0.268922 -0.30487,0 -0.45704,-0.06726 -0.65686,-0.264827 -0.0949,-0.10647 -0.16109,-0.202421 -0.19704,-0.279171 l -0.26493,-0.566558 -0.0299,0 -3.17768,-6.546265 -14.3406,0 -3.44865,7.104616 -0.003,0.0083 c -0.0367,0.07871 -0.10185,0.169605 -0.18871,0.268921 -0.216,0.204984 -0.37852,0.275076 -0.66302,0.275076 -0.30619,0 -0.45803,-0.0676 -0.65895,-0.266857 -0.20801,-0.21853 -0.27725,-0.383221 -0.27725,-0.669549 0,-0.200658 0.0406,-0.324002 0.12948,-0.459819 l 0.0333,-0.0513 11.38871,-23.46513 0.007,-0.01631 c 0.0349,-0.08018 0.0949,-0.170836 0.19904,-0.275076 l 0.003,-0.0063 0.007,-0.0063 c 0.20502,-0.212008 0.35032,-0.273013 0.65486,-0.273013 z m -29.387352,1.86802 0,0.979168 0,5.324858 4.731612,0 c 0.82754,0 1.63876,-0.331124 2.22518,-0.917577 0.58961,-0.589586 0.91759,-1.407981 0.91759,-2.245723 0,-0.819791 -0.33734,-1.615786 -0.91553,-2.196452 -0.58266,-0.59664 -1.39439,-0.944274 -2.22724,-0.944274 l -4.731612,0 z m -50.9311,1.204968 -0.882674,1.812588 -5.396731,11.078768 12.530054,0 -6.250649,-12.891356 z m 80.320482,0 -0.88268,1.812588 -5.39673,11.078768 12.53212,0 -6.25271,-12.891356 z m -27.431052,0.755415 2.773282,0 c 0.36359,0 0.56814,0.08607 0.82727,0.35308 l 0.007,0.0063 0.003,0.0042 c 0.26127,0.261198 0.34691,0.464935 0.34691,0.816992 0,0.387365 -0.0942,0.607426 -0.34691,0.86011 -0.25594,0.255808 -0.46548,0.34281 -0.83755,0.34281 l -2.773252,0 0,-2.38326 z m -52.893522,3.729874 3.124287,6.44567 -6.262962,0 3.138675,-6.44567 z m 80.320474,0 3.12637,6.44567 -6.26503,0 3.13866,-6.44567 z m -29.385282,2.502318 0,0.979167 0,12.560853 4.961532,0 c 1.83678,0 3.50412,-0.691674 4.79112,-1.991182 l 0.002,-0.0021 c 1.29637,-1.297438 1.98708,-2.960172 1.98708,-4.787044 0,-1.815009 -0.69117,-3.468517 -1.98504,-4.76446 l -0.002,-0.0021 c -1.28728,-1.301151 -2.95542,-1.993506 -4.79319,-1.993506 l -4.961532,0 z m 1.95833,1.960383 3.003202,0 c 1.37713,0 2.44095,0.442982 3.39938,1.4123 l 0.002,0.0021 0.002,0.0021 c 0.97499,0.974987 1.41844,2.035059 1.41844,3.382955 0,1.362533 -0.44461,2.429662 -1.41844,3.40348 l -0.002,0.0021 -0.002,0.0021 c -0.95843,0.969309 -2.02225,1.412301 -3.39938,1.412301 l -3.003202,0 0,-9.619253 z"
     id="path4138"
     inkscape:connector-curvature="0" />
</svg>
