<?xml version="1.0" encoding="UTF-8" standalone="no"?>
<svg
   xmlns:dc="http://purl.org/dc/elements/1.1/"
   xmlns:cc="http://creativecommons.org/ns#"
   xmlns:rdf="http://www.w3.org/1999/02/22-rdf-syntax-ns#"
   xmlns:svg="http://www.w3.org/2000/svg"
   xmlns="http://www.w3.org/2000/svg"
   version="1.1"
   id="svg2"
   viewBox="0 0 179.99998 80"
   height="80"
   width="180">
  <defs
     id="defs4" />
  <metadata
     id="metadata7">
    <rdf:RDF>
      <cc:Work
         rdf:about="">
        <dc:format>image/svg+xml</dc:format>
        <dc:type
           rdf:resource="http://purl.org/dc/dcmitype/StillImage" />
        <dc:title></dc:title>
      </cc:Work>
    </rdf:RDF>
  </metadata>
  <g
     transform="matrix(1.0147084,0,0,1.0147084,98.559006,-774.25838)"
     id="text4140"
     style="font-style:normal;font-weight:normal;font-size:40px;line-height:125%;font-family:sans-serif;letter-spacing:0px;word-spacing:0px;fill:#ff0073;fill-opacity:1;stroke:none;stroke-width:1px;stroke-linecap:butt;stroke-linejoin:miter;stroke-opacity:1">
    <path
       id="path4145"
       style="font-style:normal;font-variant:normal;font-weight:normal;font-stretch:normal;font-family:'Studio Neon';-inkscape-font-specification:'Studio Neon';fill:#ff0073;fill-opacity:1"
       d="m -53.817202,789.35372 c 0.16,-0.24 0.16,-0.48 0,-0.72 -0.16,-0.2 -0.36,-0.32 -0.6,-0.32 -0.24,0 -0.44,0.12 -0.64,0.32 l -7.88,13.68 -7.92,-13.68 c -0.2,-0.2 -0.4,-0.32 -0.64,-0.32 -0.28,0 -0.48,0.12 -0.6,0.32 -0.16,0.24 -0.16,0.48 0,0.72 l 9.16,15.84 9.12,-15.84 z m -23.24,26.52 c 0,0.2 0.08,0.4 0.24,0.52 0.12,0.12 0.28,0.2 0.48,0.2 0.2,0 0.36,-0.08 0.52,-0.2 0.12,-0.12 0.2,-0.32 0.2,-0.52 l 0,-26.84 c 0,-0.2 -0.08,-0.36 -0.2,-0.52 -0.16,-0.12 -0.32,-0.2 -0.52,-0.2 -0.4,0 -0.72,0.36 -0.72,0.72 l 0,26.84 z m 3.6,-27.2 c -0.2,-0.32 -0.44,-0.36 -0.76,-0.36 -0.36,0.08 -0.56,0.32 -0.56,0.72 l 0,26.84 c 0,0.44 0.28,0.72 0.72,0.72 0.4,0 0.72,-0.28 0.72,-0.72 l 0,-24.12 10.4,18 10.4,-18 0,24.12 c 0,0.44 0.28,0.72 0.72,0.72 0.4,0 0.72,-0.28 0.72,-0.72 l 0,-26.84 c 0,-0.28 -0.08,-0.48 -0.24,-0.6 -0.12,-0.08 -0.28,-0.12 -0.4,-0.12 -0.08,0 -0.16,0 -0.2,0 -0.24,0.08 -0.4,0.24 -0.52,0.44 l -10.48,18.12 -10.52,-18.2 z m 23.2,27.2 c 0,0.2 0.08,0.4 0.24,0.52 0.12,0.12 0.28,0.2 0.48,0.2 0.2,0 0.36,-0.08 0.52,-0.2 0.12,-0.12 0.2,-0.32 0.2,-0.52 l 0,-26.84 c 0,-0.2 -0.08,-0.36 -0.2,-0.52 -0.16,-0.12 -0.32,-0.2 -0.52,-0.2 -0.4,0 -0.72,0.36 -0.72,0.72 l 0,26.84 z m -22.24,-20.96 0,20.96 c 0,0.2 0.08,0.4 0.24,0.52 0.12,0.12 0.28,0.2 0.48,0.2 0.2,0 0.36,-0.08 0.52,-0.2 0.12,-0.12 0.2,-0.32 0.2,-0.52 l 0,-15.6 7.48,12.96 c 0.12,0.24 0.32,0.36 0.6,0.36 0.28,0 0.52,-0.12 0.64,-0.36 l 7.52,-12.96 0,15.6 c 0,0.2 0.08,0.4 0.24,0.52 0.12,0.12 0.28,0.2 0.48,0.2 0.36,0 0.72,-0.32 0.72,-0.72 l 0,-20.96 -9.56,16.52 -9.56,-16.52 z" />
    <path
       id="path4147"
       style="font-style:normal;font-variant:normal;font-weight:normal;font-stretch:normal;font-family:'Studio Neon';-inkscape-font-specification:'Studio Neon';fill:#ff0073;fill-opacity:1"
       d="m -33.480952,791.15372 -10.36,24.48 c -0.2,0.44 -0.08,0.72 0.36,0.92 0.24,0.08 0.44,0.12 0.6,0.04 0.12,-0.08 0.28,-0.2 0.36,-0.44 l 2.8,-6.44 12.52,0 2.8,6.44 c 0.08,0.24 0.24,0.36 0.4,0.44 0.16,0.08 0.32,0.04 0.56,-0.04 0.44,-0.2 0.56,-0.48 0.36,-0.92 l -10.4,-24.48 z m 0,3.36 5.68,13.76 -11.36,0 5.68,-13.76 z m 0,2.32 -4.4,10.6 8.8,0 -4.4,-10.6 z m 2.44,9.2 -4.84,0 2.44,-5.92 2.4,5.92 z m -0.48,-16.52 c -0.36,-0.84 -1,-1.24 -1.96,-1.24 -0.92,0 -1.56,0.4 -1.92,1.24 l -10.92,26.12 c -0.2,0.4 -0.04,0.72 0.4,0.92 0.2,0.08 0.36,0.12 0.52,0.04 0.16,-0.08 0.28,-0.2 0.4,-0.44 l 10.96,-26.12 1.16,0 10.96,26.12 c 0.04,0.2 0.16,0.32 0.36,0.4 0.08,0.04 0.2,0.08 0.28,0.08 0.08,0 0.2,-0.04 0.28,-0.08 0.44,-0.2 0.6,-0.52 0.4,-0.92 l -10.92,-26.12 z m -7.64,21.04 -2.24,5.08 c -0.2,0.4 -0.04,0.72 0.4,0.92 0.2,0.08 0.36,0.12 0.52,0.04 0.16,-0.08 0.28,-0.2 0.4,-0.44 l 1.84,-4.2 9.6,0 1.8,4.2 c 0.04,0.2 0.16,0.32 0.36,0.4 0.08,0.04 0.2,0.08 0.28,0.08 0.08,0 0.2,-0.04 0.28,-0.08 0.44,-0.2 0.6,-0.52 0.4,-0.92 l -2.24,-5.08 -11.4,0 z" />
    <path
       id="path4149"
       style="font-style:normal;font-variant:normal;font-weight:normal;font-stretch:normal;font-family:'Studio Neon';-inkscape-font-specification:'Studio Neon';fill:#ff0073;fill-opacity:1"
       d="m 5.0890479,789.35372 c 0.16,-0.24 0.16,-0.48 0,-0.72 -0.16,-0.2 -0.36,-0.32 -0.6,-0.32 -0.24,0 -0.44,0.12 -0.64,0.32 l -7.88,13.68 -7.9199999,-13.68 c -0.2,-0.2 -0.4,-0.32 -0.64,-0.32 -0.28,0 -0.48,0.12 -0.6,0.32 -0.16,0.24 -0.16,0.48 0,0.72 l 9.1599999,15.84 9.12,-15.84 z m -23.2399999,26.52 c 0,0.2 0.08,0.4 0.24,0.52 0.12,0.12 0.28,0.2 0.48,0.2 0.2,0 0.36,-0.08 0.52,-0.2 0.12,-0.12 0.2,-0.32 0.2,-0.52 l 0,-26.84 c 0,-0.2 -0.08,-0.36 -0.2,-0.52 -0.16,-0.12 -0.32,-0.2 -0.52,-0.2 -0.4,0 -0.72,0.36 -0.72,0.72 l 0,26.84 z m 3.6,-27.2 c -0.2,-0.32 -0.44,-0.36 -0.76,-0.36 -0.36,0.08 -0.56,0.32 -0.56,0.72 l 0,26.84 c 0,0.44 0.28,0.72 0.72,0.72 0.4,0 0.72,-0.28 0.72,-0.72 l 0,-24.12 10.3999999,18 10.4,-18 0,24.12 c 0,0.44 0.28,0.72 0.72,0.72 0.4,0 0.72,-0.28 0.72,-0.72 l 0,-26.84 c 0,-0.28 -0.08,-0.48 -0.24,-0.6 -0.12,-0.08 -0.28,-0.12 -0.4,-0.12 -0.08,0 -0.16,0 -0.2,0 -0.24,0.08 -0.4,0.24 -0.52,0.44 l -10.48,18.12 -10.5199999,-18.2 z m 23.1999999,27.2 c 0,0.2 0.08,0.4 0.24,0.52 0.12,0.12 0.28,0.2 0.48,0.2 0.2,0 0.36,-0.08 0.52,-0.2 0.1200001,-0.12 0.2000001,-0.32 0.2000001,-0.52 l 0,-26.84 c 0,-0.2 -0.08,-0.36 -0.2000001,-0.52 -0.16,-0.12 -0.32,-0.2 -0.52,-0.2 -0.4,0 -0.72,0.36 -0.72,0.72 l 0,26.84 z m -22.2399999,-20.96 0,20.96 c 0,0.2 0.08,0.4 0.24,0.52 0.12,0.12 0.28,0.2 0.48,0.2 0.2,0 0.36,-0.08 0.52,-0.2 0.12,-0.12 0.2,-0.32 0.2,-0.52 l 0,-15.6 7.4799999,12.96 c 0.12,0.24 0.32,0.36 0.6,0.36 0.28,0 0.52,-0.12 0.64,-0.36 l 7.52,-12.96 0,15.6 c 0,0.2 0.08,0.4 0.24,0.52 0.12,0.12 0.28,0.2 0.48,0.2 0.36,0 0.72,-0.32 0.72,-0.72 l 0,-20.96 -9.56,16.52 -9.5599999,-16.52 z" />
    <path
       id="path4151"
       style="font-style:normal;font-variant:normal;font-weight:normal;font-stretch:normal;font-family:'Studio Neon';-inkscape-font-specification:'Studio Neon';fill:#ff0073;fill-opacity:1"
       d="m 32.745298,802.11372 c 1.28,-1.52 1.92,-3.28 1.92,-5.32 0,-4.64 -3.72,-8.36 -8.36,-8.36 l -11.16,0 c -0.2,0 -0.4,0.08 -0.56,0.24 -0.2,0.16 -0.28,0.32 -0.28,0.52 l 0,26.44 c 0,0.44 0.44,0.8 0.88,0.8 l 11.16,0 c 4.76,0 8.68,-3.8 8.68,-8.64 0,-1.96 -0.84,-4.28 -2.28,-5.64 l 0,-0.04 z m -17,12.92 0,-25.12 10.56,0 c 3.84,0 6.96,3 6.96,6.92 0,2.24 -0.8,4 -2.44,5.32 1.92,1.2 2.8,3.44 2.8,5.68 0,3.88 -3.04,6.92 -6.88,7.2 l -11,0 z m 13.44,-12.88 c 1.92,-1.08 3.2,-3.16 3.2,-5.36 0,-3.4 -2.72,-6.04 -6.08,-6.04 l -9.72,0 0,23.4 10,0 c 3.44,-0.08 6.12,-2.92 6.12,-6.32 0,-2.4 -1.36,-4.64 -3.52,-5.68 z m -11.16,10.56 0,-9.84 8.48,0 c 2.68,0.08 4.8,2.24 4.8,4.96 0,2.68 -2.2,4.88 -4.88,4.88 l -8.4,0 z m 8.28,-20.52 c 2.56,0 4.64,1.96 4.64,4.6 0,2.52 -2.12,4.64 -4.64,4.64 l -8.28,0 0,-9.24 8.28,0 z m 0,8.32 c 2.08,0 3.76,-1.68 3.76,-3.76 0,-1.04 -0.36,-1.92 -1.08,-2.68 -0.76,-0.72 -1.64,-1.08 -2.68,-1.08 l -7.4,0 -0.04,7.52 7.44,0 z m -6,-6.08 6,0 c 1.28,0 2.36,1 2.36,2.32 0,1.28 -1.08,2.32 -2.36,2.32 l -6,0 0,-4.64 z m -1.44,9.36 0,8.08 7.64,0 c 2.16,-0.08 3.92,-1.88 3.92,-4.04 0,-2.28 -1.8,-4.04 -4.04,-4.04 l -7.52,0 z m 1.44,6.64 0,-5.24 6.08,0 c 1.48,0 2.6,1.16 2.6,2.64 0,1.44 -1.16,2.6 -2.6,2.6 l -6.08,0 z" />
    <path
       id="path4153"
       style="font-style:normal;font-variant:normal;font-weight:normal;font-stretch:normal;font-family:'Studio Neon';-inkscape-font-specification:'Studio Neon';fill:#ff0073;fill-opacity:1"
       d="m 47.222173,791.15372 -10.36,24.48 c -0.2,0.44 -0.08,0.72 0.36,0.92 0.24,0.08 0.44,0.12 0.6,0.04 0.12,-0.08 0.28,-0.2 0.36,-0.44 l 2.8,-6.44 12.52,0 2.8,6.44 c 0.08,0.24 0.24,0.36 0.4,0.44 0.16,0.08 0.32,0.04 0.56,-0.04 0.44,-0.2 0.56,-0.48 0.36,-0.92 l -10.4,-24.48 z m 0,3.36 5.68,13.76 -11.36,0 5.68,-13.76 z m 0,2.32 -4.4,10.6 8.8,0 -4.4,-10.6 z m 2.44,9.2 -4.84,0 2.44,-5.92 2.4,5.92 z m -0.48,-16.52 c -0.36,-0.84 -1,-1.24 -1.96,-1.24 -0.92,0 -1.56,0.4 -1.92,1.24 l -10.92,26.12 c -0.2,0.4 -0.04,0.72 0.4,0.92 0.2,0.08 0.36,0.12 0.52,0.04 0.16,-0.08 0.28,-0.2 0.4,-0.44 l 10.96,-26.12 1.16,0 10.96,26.12 c 0.04,0.2 0.16,0.32 0.36,0.4 0.08,0.04 0.2,0.08 0.28,0.08 0.08,0 0.2,-0.04 0.28,-0.08 0.44,-0.2 0.6,-0.52 0.4,-0.92 l -10.92,-26.12 z m -7.64,21.04 -2.24,5.08 c -0.2,0.4 -0.04,0.72 0.4,0.92 0.2,0.08 0.36,0.12 0.52,0.04 0.16,-0.08 0.28,-0.2 0.4,-0.44 l 1.84,-4.2 9.6,0 1.8,4.2 c 0.04,0.2 0.16,0.32 0.36,0.4 0.08,0.04 0.2,0.08 0.28,0.08 0.08,0 0.2,-0.04 0.28,-0.08 0.44,-0.2 0.6,-0.52 0.4,-0.92 l -2.24,-5.08 -11.4,0 z" />
  </g>
  <path
     id="path4155"
     transform="translate(-7.6293945e-6,0)"
     d="M 9.421875 0 A 90.000002 90.000002 0 0 0 0 40 A 90.000002 90.000002 0 0 0 9.4980469 80 L 13.136719 80 A 86.684212 86.684212 0 0 1 3.3164062 40 A 86.684212 86.684212 0 0 1 13.173828 0 L 9.421875 0 z M 166.86328 0 A 86.684212 86.684212 0 0 1 176.68359 40 A 86.684212 86.684212 0 0 1 166.82617 80 L 170.57812 80 A 90.000002 90.000002 0 0 0 180 40 A 90.000002 90.000002 0 0 0 170.50195 0 L 166.86328 0 z "
     style="opacity:1;fill:#ff0073;fill-opacity:1;fill-rule:nonzero;stroke:none;stroke-width:2.5;stroke-linejoin:round;stroke-miterlimit:4;stroke-dasharray:none;stroke-opacity:1" />
  <path
     id="path4174"
     transform="translate(-7.6293945e-6,0)"
     d="M 20.226562 0 A 80.526317 80.526317 0 0 0 9.4746094 40 A 80.526317 80.526317 0 0 0 20.1875 80 L 22.955078 80 A 78.157896 78.157896 0 0 1 11.841797 40 A 78.157896 78.157896 0 0 1 22.960938 0 L 20.226562 0 z M 157.04492 0 A 78.157896 78.157896 0 0 1 168.1582 40 A 78.157896 78.157896 0 0 1 157.03906 80 L 159.77344 80 A 80.526317 80.526317 0 0 0 170.52539 40 A 80.526317 80.526317 0 0 0 159.8125 0 L 157.04492 0 z "
     style="opacity:1;fill:#009bff;fill-opacity:1;fill-rule:nonzero;stroke:none;stroke-width:2.5;stroke-linejoin:round;stroke-miterlimit:4;stroke-dasharray:none;stroke-opacity:1" />
</svg>
